<?xml version="1.0" encoding="UTF-8" standalone="no"?><svg xmlns="http://www.w3.org/2000/svg" xmlns:xlink="http://www.w3.org/1999/xlink" contentScriptType="application/ecmascript" contentStyleType="text/css" height="203px" preserveAspectRatio="none" style="width:604px;height:203px;" version="1.1" viewBox="0 0 604 203" width="604px" zoomAndPan="magnify"><defs><filter height="300%" id="f18n0w06guxu1l" width="300%" x="-1" y="-1"><feGaussianBlur result="blurOut" stdDeviation="2.0"/><feColorMatrix in="blurOut" result="blurOut2" type="matrix" values="0 0 0 0 0 0 0 0 0 0 0 0 0 0 0 0 0 0 .4 0"/><feOffset dx="4.0" dy="4.0" in="blurOut2" result="blurOut3"/><feBlend in="SourceGraphic" in2="blurOut3" mode="normal"/></filter></defs><g><text fill="#000000" font-family="sans-serif" font-size="18" lengthAdjust="spacingAndGlyphs" textLength="154" x="216.25" y="16.708">Unit State Model</text><ellipse cx="16" cy="47.9531" fill="#000000" filter="url(#f18n0w06guxu1l)" rx="10" ry="10" style="stroke: none; stroke-width: 1.0;"/><rect fill="#FEFECE" filter="url(#f18n0w06guxu1l)" height="40" rx="12.5" ry="12.5" style="stroke: #A80036; stroke-width: 1.5;" width="50" x="61" y="27.9531"/><text fill="#000000" font-family="sans-serif" font-size="14" lengthAdjust="spacingAndGlyphs" textLength="40" x="66" y="52.7998">initial</text><rect fill="#FEFECE" filter="url(#f18n0w06guxu1l)" height="40" rx="12.5" ry="12.5" style="stroke: #A80036; stroke-width: 1.5;" width="64" x="188" y="27.9531"/><text fill="#000000" font-family="sans-serif" font-size="14" lengthAdjust="spacingAndGlyphs" textLength="54" x="193" y="52.7998">running</text><rect fill="#FEFECE" filter="url(#f18n0w06guxu1l)" height="40" rx="12.5" ry="12.5" style="stroke: #A80036; stroke-width: 1.5;" width="74" x="59" y="144.9531"/><text fill="#000000" font-family="sans-serif" font-size="14" lengthAdjust="spacingAndGlyphs" textLength="64" x="64" y="169.7998">canceled</text><rect fill="#FEFECE" filter="url(#f18n0w06guxu1l)" height="40" rx="12.5" ry="12.5" style="stroke: #A80036; stroke-width: 1.5;" width="61" x="240.5" y="144.9531"/><text fill="#000000" font-family="sans-serif" font-size="14" lengthAdjust="spacingAndGlyphs" textLength="51" x="245.5" y="169.7998">paused</text><rect fill="#FEFECE" filter="url(#f18n0w06guxu1l)" height="40" rx="12.5" ry="12.5" style="stroke: #A80036; stroke-width: 1.5;" width="76" x="378" y="27.9531"/><text fill="#000000" font-family="sans-serif" font-size="14" lengthAdjust="spacingAndGlyphs" textLength="66" x="383" y="52.7998">overtime</text><rect fill="#FEFECE" filter="url(#f18n0w06guxu1l)" height="40" rx="12.5" ry="12.5" style="stroke: #A80036; stroke-width: 1.5;" width="67" x="518.5" y="27.9531"/><text fill="#000000" font-family="sans-serif" font-size="14" lengthAdjust="spacingAndGlyphs" textLength="57" x="523.5" y="52.7998">finished</text><!--MD5=[f202384f4b5156e8cc81ceb2c0660707]
link *start to initial--><path d="M26.1172,47.9531 C35.9441,47.9531 45.7711,47.9531 55.5981,47.9531 " fill="none" id="*start-&gt;initial" style="stroke: #A80036; stroke-width: 1.0;"/><polygon fill="#A80036" points="60.7369,47.9531,51.7369,43.9531,55.7369,47.9531,51.7369,51.9531,60.7369,47.9531" style="stroke: #A80036; stroke-width: 1.0;"/><!--MD5=[75c3a76773c5e6459ec14195b7050cac]
link initial to running--><path d="M111.204,47.9531 C131.362,47.9531 159.925,47.9531 182.726,47.9531 " fill="none" id="initial-&gt;running" style="stroke: #A80036; stroke-width: 1.0;"/><polygon fill="#A80036" points="187.794,47.9531,178.794,43.9531,182.794,47.9531,178.794,51.9531,187.794,47.9531" style="stroke: #A80036; stroke-width: 1.0;"/><text fill="#000000" font-family="sans-serif" font-size="13" lengthAdjust="spacingAndGlyphs" textLength="30" x="134.5" y="41.02">start</text><!--MD5=[7d78f21299e44b8fd5fda7c958bd5dc2]
link initial to canceled--><path d="M72.0295,68.1451 C64.2353,81.2311 57.0111,99.0119 62,114.9531 C64.8703,124.1245 70.1283,133.0864 75.6655,140.7852 " fill="none" id="initial-&gt;canceled" style="stroke: #A80036; stroke-width: 1.0;"/><polygon fill="#A80036" points="78.7571,144.9256,76.5777,135.3209,75.7657,140.9192,70.1674,140.1072,78.7571,144.9256" style="stroke: #A80036; stroke-width: 1.0;"/><text fill="#000000" font-family="sans-serif" font-size="13" lengthAdjust="spacingAndGlyphs" textLength="41" x="63" y="111.02">cancel</text><!--MD5=[e0aeda45edc15fbe8fc878f29dc455c8]
link running to paused--><path d="M217.768,67.9661 C216.956,81.6091 217.51,100.1252 224,114.9531 C228.224,124.6044 235.227,133.4892 242.554,140.9663 " fill="none" id="running-&gt;paused" style="stroke: #A80036; stroke-width: 1.0;"/><polygon fill="#A80036" points="246.167,144.521,242.5579,135.3573,242.6032,141.014,236.9466,141.0593,246.167,144.521" style="stroke: #A80036; stroke-width: 1.0;"/><text fill="#000000" font-family="sans-serif" font-size="13" lengthAdjust="spacingAndGlyphs" textLength="39" x="225" y="111.02">pause</text><!--MD5=[7dc0902ef7b5916be1c6b5182dc51c70]
link paused to running--><path d="M275.769,144.9285 C278.212,131.28 279.477,112.7623 273,97.9531 C268.598,87.8891 260.997,78.9721 252.904,71.5971 " fill="none" id="paused-&gt;running" style="stroke: #A80036; stroke-width: 1.0;"/><polygon fill="#A80036" points="248.903,68.1021,253.0489,77.0359,252.6684,71.3918,258.3124,71.0113,248.903,68.1021" style="stroke: #A80036; stroke-width: 1.0;"/><text fill="#000000" font-family="sans-serif" font-size="13" lengthAdjust="spacingAndGlyphs" textLength="30" x="279" y="111.02">start</text><!--MD5=[6994470d519a0b56e6bbda090c9a3357]
link running to canceled--><path d="M199.245,68.2011 C177.607,88.2689 143.703,119.7123 120.701,141.0452 " fill="none" id="running-&gt;canceled" style="stroke: #A80036; stroke-width: 1.0;"/><polygon fill="#A80036" points="116.823,144.6419,126.1419,141.4549,120.4891,141.242,120.702,135.5891,116.823,144.6419" style="stroke: #A80036; stroke-width: 1.0;"/><text fill="#000000" font-family="sans-serif" font-size="13" lengthAdjust="spacingAndGlyphs" textLength="41" x="167" y="111.02">cancel</text><!--MD5=[ee1f717edf2e7ce82f18f7f8b70f7fdb]
link running to overtime--><path d="M252.365,47.9531 C285.217,47.9531 336.28,47.9531 372.62,47.9531 " fill="none" id="running-&gt;overtime" style="stroke: #A80036; stroke-width: 1.0;"/><polygon fill="#A80036" points="377.871,47.9531,368.871,43.9531,372.871,47.9531,368.871,51.9531,377.871,47.9531" style="stroke: #A80036; stroke-width: 1.0;"/><text fill="#000000" font-family="sans-serif" font-size="13" lengthAdjust="spacingAndGlyphs" textLength="89" x="270.5" y="41.02">(time passed)</text><!--MD5=[ec09f65548a4be5874f986c963f1a624]
link overtime to finished--><path d="M454.246,47.9531 C472.63,47.9531 494.628,47.9531 513.098,47.9531 " fill="none" id="overtime-&gt;finished" style="stroke: #A80036; stroke-width: 1.0;"/><polygon fill="#A80036" points="518.207,47.9531,509.207,43.9531,513.207,47.9531,509.207,51.9531,518.207,47.9531" style="stroke: #A80036; stroke-width: 1.0;"/><text fill="#000000" font-family="sans-serif" font-size="13" lengthAdjust="spacingAndGlyphs" textLength="28" x="472.25" y="41.02">stop</text><!--MD5=[66b589fd4f0500d6b3012caa44db94b5]
@startuml
title Unit State Model

hide empty description

[*] -> initial
initial -> running : start
initial - -> canceled : cancel

running - -> paused : pause
running -> canceled : cancel
running -> overtime : (time passed)

paused -> running : start

overtime -> finished : stop
@enduml

PlantUML version 1.2020.16beta3(Unknown compile time)
(GPL source distribution)
Java Runtime: Java(TM) SE Runtime Environment
JVM: Java HotSpot(TM) 64-Bit Server VM
Default Encoding: UTF-8
Language: en
Country: US
--></g></svg>